# xmcd
#
# Track frame offsets: 
#        150
#        12940
#        29656
#        39844
#        51414
#        62325
#        75840
#        85597
#        98446
#        111148
#        122249
#        132957
#        143392
#        156572
#        167470
#        179510
#
# Disc length: 2565 seconds
#
# Revision: 0
# Processed by: cddbd v1.5.2PL0 Copyright (c) Steve Scherf et al.
# Submitted via: ExactAudioCopy v0.99pb3
#
DISCID=be0a0310
DTITLE=Various Artist - Best of Country - Platinum Songs -CD 2-
DYEAR=2008
DGENRE=Country
TTITLE0=Willie Nelson - Home is where you're happy
TTITLE1=Rex Allen - Memory train
TTITLE2=Weylon Jennings - White lightning
TTITLE3=Johnny Cash - Peace in the valley
TTITLE4=Don Gibson - Oh lonesome me
TTITLE5=Hank Williams - Jambalaya
TTITLE6=Dave Dudley - Six days on the road
TTITLE7=Frankie Laine - High noon
TTITLE8=Ray Price - Let it rain, let her cry
TTITLE9=Roger Miller - King of the road 
TTITLE10=Willie Nelson - No tomorrow in sight
TTITLE11=Willie Nelson - No tomorrow in sight
TTITLE12=Johnny Cash - Wanted man
TTITLE13=Ricky Nelson - Travelin' man
TTITLE14=Ernest Tubb - Walking the floor over you
TTITLE15=The Staller Brothers - Do you remember these
EXTD=
EXTT0=
EXTT1=
EXTT2=
EXTT3=
EXTT4=
EXTT5=
EXTT6=
EXTT7=
EXTT8=
EXTT9=
EXTT10=
EXTT11=
EXTT12=
EXTT13=
EXTT14=
EXTT15=
PLAYORDER=
